<svg
  xmlns="http://www.w3.org/2000/svg"
  viewBox="0 0 256 256"
  fill="none"
>
  <title>Mill Bakery Windmill</title>
  <g stroke-linecap="round" stroke-linejoin="round">
    <g stroke="#cc1247" stroke-width="5">
      <circle cx="128" cy="89" r="18" />
      <path d="M109 107h38l11 60h-60l11-60Z" />
      <path d="M106 167h44v10h-44Z" />
      <path d="M102 179h52v11h-52Z" />
      <path d="M127 78 86 37c-5-5-5-13 0-18l4-4 51 51" />
      <path d="M142 92 183 133c5 5 13 5 18 0l4-4-51-51" />
      <path d="M113 91 72 132c-5 5-13 5-18 0l-4-4 51-51" />
      <path d="M143 77 184 36c5-5 13-5 18 0l4 4-51 51" />
      <path d="M115 72c3-8 7-13 13-17" />
      <path d="M141 72c-3-8-7-13-13-17" />
    </g>
    <g stroke="#efa11d" stroke-width="3.5">
      <path d="M46 174c19 9 42 13 67 13s48-4 67-13" />
      <path d="M119 188c-10 13-15 24-15 36" />
      <path d="M137 188c10 13 15 24 15 36" />
      <path d="M128 188c0 9-2 18-5 27" />
      <path d="M35 177c5-18 12-32 22-44" />
      <path d="M40 179c10-8 16-16 21-26" />
      <path d="M46 173c9-7 15-14 19-23" />
      <path d="M52 166c8-6 13-12 17-20" />
      <path d="M58 159c7-5 11-10 14-16" />
      <path d="M64 151c5-4 9-8 11-13" />
      <path d="M221 177c-5-18-12-32-22-44" />
      <path d="M216 179c-10-8-16-16-21-26" />
      <path d="M210 173c-9-7-15-14-19-23" />
      <path d="M204 166c-8-6-13-12-17-20" />
      <path d="M198 159c-7-5-11-10-14-16" />
      <path d="M192 151c-5-4-9-8-11-13" />
      <path d="M122 188c0 7 2 12 6 16" />
      <path d="M134 188c0 7-2 12-6 16" />
    </g>
  </g>
</svg>
